<?xml version="1.0" standalone="no"?><!DOCTYPE svg PUBLIC "-//W3C//DTD SVG 1.1//EN" "http://www.w3.org/Graphics/SVG/1.1/DTD/svg11.dtd"><svg t="1697180941607" class="icon" viewBox="0 0 1024 1024" version="1.1" xmlns="http://www.w3.org/2000/svg" p-id="9760" xmlns:xlink="http://www.w3.org/1999/xlink" width="200" height="200"><path d="M0 0m75.851852 0l872.296296 0q75.851852 0 75.851852 75.851852l0 872.296296q0 75.851852-75.851852 75.851852l-872.296296 0q-75.851852 0-75.851852-75.851852l0-872.296296q0-75.851852 75.851852-75.851852Z" fill="#9E0E0E" p-id="9761"></path><path d="M625.114074 756.92563a47.388444 47.388444 0 0 0-47.350518 47.350518 47.388444 47.388444 0 0 0 47.350518 47.350519 47.388444 47.388444 0 0 0 47.350519-47.350519 47.388444 47.388444 0 0 0-47.350519-47.350518z m0 68.683851c-11.757037 0-21.333333-9.576296-21.333333-21.333333s9.576296-21.333333 21.333333-21.333333 21.333333 9.576296 21.333333 21.333333-9.576296 21.333333-21.333333 21.333333zM280.974222 756.92563a47.388444 47.388444 0 0 0-47.350518 47.350518 47.388444 47.388444 0 0 0 47.350518 47.350519 47.388444 47.388444 0 0 0 47.350519-47.350519 47.388444 47.388444 0 0 0-47.350519-47.350518z m0 68.683851c-11.757037 0-21.333333-9.576296-21.333333-21.333333s9.576296-21.333333 21.333333-21.333333 21.333333 9.576296 21.333334 21.333333-9.576296 21.333333-21.333334 21.333333zM505.647407 756.92563a47.388444 47.388444 0 0 0-47.331555 47.350518 47.388444 47.388444 0 0 0 47.331555 47.350519 47.388444 47.388444 0 0 0 47.350519-47.350519 47.388444 47.388444 0 0 0-47.350519-47.350518z m0 68.683851c-11.757037 0-21.333333-9.576296-21.333333-21.333333s9.576296-21.333333 21.333333-21.333333 21.333333 9.576296 21.333334 21.333333-9.576296 21.333333-21.333334 21.333333zM174.023111 756.92563a47.388444 47.388444 0 0 0-47.350518 47.350518 47.388444 47.388444 0 0 0 47.350518 47.350519 47.388444 47.388444 0 0 0 47.331556-47.350519 47.388444 47.388444 0 0 0-47.331556-47.350518z m0 68.683851c-11.757037 0-21.333333-9.576296-21.333333-21.333333s9.557333-21.333333 21.333333-21.333333c11.757037 0 21.333333 9.576296 21.333333 21.333333s-9.576296 21.333333-21.333333 21.333333z" fill="#FFFFFF" p-id="9762"></path><path d="M706.066963 576.891259a14.411852 14.411852 0 0 0-13.217185-8.83674H577.042963a14.392889 14.392889 0 0 0-14.373926 14.354962v105.832297H94.814815v66.389333h51.389629c-17.464889 9.898667-28.065185 29.771852-25.789629 56.092445l3.849481-3.527112C125.819259 770.446222 149.238519 754.725926 174.004148 754.725926c24.76563 0 48.165926 15.701333 49.739852 52.451555l3.640889 3.318519v0.208593l0.113778-0.094815 0.094814 0.094815v-0.18963l3.640889-3.337482c1.573926-36.750222 24.974222-52.451556 49.739852-52.451555 24.76563 0 48.184889 15.701333 49.739852 52.451555l3.849482 3.527112c2.294519-26.320593-8.324741-46.193778-25.78963-56.092445h33.185185a4.892444 4.892444 0 0 0-4.892444 4.892445v47.255703c0 2.692741 2.180741 4.892444 4.892444 4.892445H445.62963a4.892444 4.892444 0 0 0 4.892444-4.892445v-47.255703a4.892444 4.892444 0 0 0-4.892444-4.892445H477.866667c-17.483852 9.898667-28.103111 29.771852-25.808593 56.092445l3.849482-3.527112c1.554963-36.750222 24.974222-52.451556 49.739851-52.451555 24.76563 0 48.165926 15.701333 49.739852 52.451555l3.849482 3.527112c2.294519-26.320593-8.324741-46.193778-25.78963-56.092445h29.221926v47.028148c0 1.479111 1.137778 2.616889 2.616889 2.616889h8.419555a51.52237 51.52237 0 0 1 51.38963-51.389629 51.52237 51.52237 0 0 1 51.427556 51.389629h29.658074c0.625778 0 1.251556-0.094815 1.972148-0.094815a27.629037 27.629037 0 0 0 25.694815-27.591111v-36.219259a6.485333 6.485333 0 0 0-6.447408-6.447407h-0.512v-10.714074h0.512c3.546074 0 6.447407-2.920296 6.447408-6.447408v-50.062222l-26.320593-86.262519a49.720889 49.720889 0 0 0-1.460148-3.546074z m-478.568296 219.591111c-1.972148-19.26637-11.567407-33.829926-25.713778-41.851259h51.408592c-14.14637 8.021333-23.836444 22.584889-25.694814 41.832296z m128 12.15526h-7.395556v-51.806815h7.395556v51.806815z m38.286222-25.903408a6.314667 6.314667 0 0 1-6.352593-6.352592c0-3.527111 2.806519-6.33363 6.352593-6.33363 3.546074 0 6.352593 2.806519 6.352592 6.33363a6.314667 6.314667 0 0 1-6.352592 6.352592z m45.681778 25.903408h-7.395556v-51.806815h7.395556v51.806815z m177.019259-221.639111c0-3.546074 2.901333-6.447407 6.447407-6.447408h59.524741a6.447407 6.447407 0 0 1 6.238815 4.778667l15.815111 60.871111c0.512 2.085926 0 4.266667-1.34637 5.840592a6.447407 6.447407 0 0 1-5.632 2.085926l-75.339852-9.803851a6.409481 6.409481 0 0 1-5.613037-6.33363v-51.01037h-0.094815z m25.182815 81.066666v3.413334c0 1.156741-0.948148 1.991111-1.991111 1.991111h-18.413037a1.972148 1.972148 0 0 1-1.972149-1.972149v-3.432296c0-1.137778 0.929185-1.991111 1.972149-1.991111h18.413037c1.137778-0.094815 1.991111 0.83437 1.991111 1.991111z m75.017481-17.692444c-3.128889-11.339852-18.318222-62.122667-18.109629-65.668741 0.32237-4.058074 7.907556-4.058074 7.907555-4.058074l25.088 81.692444s-12.591407-3.963259-14.885926-11.965629z" fill="#FFFFFF" p-id="9763"></path><path d="M261.30963 680.63763h126.331259V643.413333c0-40.997926-17.787259-76.61037-26.548148-91.78074a15.54963 15.54963 0 0 0-13.406815-7.698963H261.30963v24.139851H94.814815v105.623704h166.494815v6.959408z m14.98074-125.800297c0-1.554963 1.251556-2.711704 2.711704-2.711703H360.296296c8.836741 15.303111 26.017185 50.36563 26.225778 90.642963h-56.699259c-6.162963 0-12.079407-2.389333-16.554667-6.769778l-18.735407-18.204445a8.969481 8.969481 0 0 0-6.352593-2.597926h-9.159111a2.692741 2.692741 0 0 1-2.711704-2.711703v-57.647408z" fill="#FFFFFF" p-id="9764"></path><path d="M682.552889 306.441481l-5.840593 2.806519 5.840593 12.060444-9.367704-19.456-533.105778 257.327408h112.374519v-24.120889h88.557037l113.85363-54.954667-68.266667 106.249482c4.892444 14.468741 8.628148 31.213037 9.576296 49.322666l118.518519-184.395851 167.860148-81.066667V306.441481zM934.987852 239.634963l-21.845333-45.169778a8.722963 8.722963 0 0 0-4.892445-4.361481 8.419556 8.419556 0 0 0-6.561185 0.417185l-21.124741 10.183111a8.760889 8.760889 0 0 0-4.058074 11.567407l0.208593 0.512-158.682074 76.496593a18.394074 18.394074 0 0 1 0.948148 5.404444v48.696889l176.677926-85.333333 1.763555 380.965926h-0.094815l-8.229926 9.272889v19.873185l17.806223 30.283852h0.720592s5.006222 7.907556 3.432297 12.591407c-1.34637 3.640889-8.116148 3.944296-10.183112 0.720593-1.782519-2.806519-2.085926-9.159111-2.294518-10.922667 0-2.180741-2.503111-1.877333-2.503111-0.303407 0 1.554963 0.113778 2.806519-0.18963 4.778666-0.436148 2.085926-2.199704 7.698963 0.720593 13.312 2.597926 5.006222 11.017481 6.769778 17.256296 4.683852 7.300741-2.275556 10.42963-9.576296 9.784889-16.232296-0.625778-5.82163-3.849481-11.434667-6.030222-14.65837l14.260148-24.367408v-19.873185l-8.229926-9.253926h-1.554963l11.567407-389.916444a8.343704 8.343704 0 0 0 1.327408-9.367704z m-18.394074 399.378963H902.826667l-1.668741-378.576593c2.503111 1.782519 5.726815 2.294519 8.722963 0.834371l18.128592-8.722963-11.453629 386.465185z" fill="#FFFFFF" p-id="9765"></path><path d="M887.352889 486.665481l-161.507556-279.703703a22.565926 22.565926 0 0 0-39.120592 0l-161.507556 279.703703a22.565926 22.565926 0 0 0 19.569778 33.810963h322.996148a22.565926 22.565926 0 0 0 19.569778-33.810963z m-204.8-192c0-10.088296 8.116148-18.204444 18.204444-18.204444 10.107259 0 18.223407 8.116148 18.223408 18.204444v101.679408c0 10.088296-8.116148 18.204444-18.204445 18.204444a18.166519 18.166519 0 0 1-18.204444-18.204444v-101.679408z m18.204444 182.234075a20.66963 20.66963 0 0 1-20.593777-20.631704c0-11.339852 9.272889-20.593778 20.61274-20.593778s20.593778 9.253926 20.593778 20.593778c0 11.358815-9.253926 20.612741-20.593778 20.612741z" fill="#FFFFFF" p-id="9766"></path></svg>