<?xml version="1.0" standalone="no"?><!DOCTYPE svg PUBLIC "-//W3C//DTD SVG 1.1//EN" "http://www.w3.org/Graphics/SVG/1.1/DTD/svg11.dtd"><svg t="1697180933688" class="icon" viewBox="0 0 1024 1024" version="1.1" xmlns="http://www.w3.org/2000/svg" p-id="9460" xmlns:xlink="http://www.w3.org/1999/xlink" width="200" height="200"><path d="M0 0m75.851852 0l872.296296 0q75.851852 0 75.851852 75.851852l0 872.296296q0 75.851852-75.851852 75.851852l-872.296296 0q-75.851852 0-75.851852-75.851852l0-872.296296q0-75.851852 75.851852-75.851852Z" fill="#9E0E0E" p-id="9461"></path><path d="M782.52563 301.852444a44.980148 44.980148 0 0 0-29.847704-11.150222c-1.005037 0-2.029037 0-3.034074 0.056889-0.606815 0.075852-7.661037 0.474074-18.62163 0.474074-18.204444 0-53.778963-1.270519-87.476148-9.064296-43.425185-10.164148-93.582222-57.268148-108.183704-66.56A45.397333 45.397333 0 0 0 511.051852 208.592593a45.511111 45.511111 0 0 0-24.272593 6.940444c-1.763556 1.175704-54.328889 54.556444-105.775407 66.56-33.678222 7.86963-69.916444 9.064296-88.082963 9.064296-10.960593 0-18.014815-0.379259-18.678519-0.455111-0.948148-0.075852-1.896296-0.075852-2.901333-0.075852-11.017481 0-21.788444 3.982222-29.923556 11.169186A40.96 40.96 0 0 0 227.555556 332.231111V436.148148c0 384.094815 264.51437 433.569185 275.721481 435.560296a51.086222 51.086222 0 0 0 15.473778 0C529.976889 869.717333 796.444444 820.242963 796.444444 436.129185v-103.879111c0-11.567407-5.044148-22.528-13.918814-30.39763z m-171.652741 224.711112l-135.49037 151.741629c-6.580148 7.395556-18.811259 0.986074-16.270223-8.533333l25.220741-93.601185h-50.763852a9.272889 9.272889 0 0 1-8.817778-12.610371l50.441482-130.048a9.443556 9.443556 0 0 1 8.798815-6.011259h85.143703a9.291852 9.291852 0 0 1 8.722963 12.8l-29.392592 70.807704h55.277037c8.154074 0.075852 12.515556 9.443556 7.130074 15.473778z" fill="#FFFFFF" p-id="9462"></path></svg>