<?xml version="1.0" standalone="no"?><!DOCTYPE svg PUBLIC "-//W3C//DTD SVG 1.1//EN" "http://www.w3.org/Graphics/SVG/1.1/DTD/svg11.dtd"><svg t="1697180906380" class="icon" viewBox="0 0 1024 1024" version="1.1" xmlns="http://www.w3.org/2000/svg" p-id="9010" xmlns:xlink="http://www.w3.org/1999/xlink" width="200" height="200"><path d="M0 0m75.851852 0l872.296296 0q75.851852 0 75.851852 75.851852l0 872.296296q0 75.851852-75.851852 75.851852l-872.296296 0q-75.851852 0-75.851852-75.851852l0-872.296296q0-75.851852 75.851852-75.851852Z" fill="#F0B607" p-id="9011"></path><path d="M866.190222 747.899259l-77.046518-91.591111-0.948148-135.604148c-1.21363-175.483259-107.33037-249.476741-218.567112-263.035259l-0.151703-16.554667A51.882667 51.882667 0 0 0 517.328593 189.62963a51.882667 51.882667 0 0 0-51.503408 52.148148l0.151704 16.554666c-111.028148 15.132444-216.101926 90.529185-214.907259 265.955556l0.967111 135.68-75.851852 92.690963a24.101926 24.101926 0 0 0 18.849185 39.442963l652.837926-4.494222c13.274074 0 24.064-10.808889 23.988148-24.139852a23.324444 23.324444 0 0 0-5.669926-15.568593zM621.719704 514.597926l-149.048889 172.126815c-7.205926 8.343704-20.859259 1.270519-18.014815-9.481482l27.192889-105.813333-56.263111 0.379259a10.486519 10.486519 0 0 1-9.898667-14.14637l54.840889-147.095704a10.315852 10.315852 0 0 1 9.765926-6.788741l94.321778-0.663703a10.486519 10.486519 0 0 1 9.841777 14.392889l-31.971555 80.099555 61.25037-0.455111c8.950519 0.075852 13.861926 10.657185 7.964445 17.445926zM522.315852 907.226074a73.993481 73.993481 0 0 0 73.386667-74.372741l-147.740445 1.042963a73.879704 73.879704 0 0 0 74.353778 73.329778z" fill="#FFFFFF" p-id="9012"></path></svg>