<?xml version="1.0" standalone="no"?><!DOCTYPE svg PUBLIC "-//W3C//DTD SVG 1.1//EN" "http://www.w3.org/Graphics/SVG/1.1/DTD/svg11.dtd"><svg t="1697180937418" class="icon" viewBox="0 0 1024 1024" version="1.1" xmlns="http://www.w3.org/2000/svg" p-id="9610" xmlns:xlink="http://www.w3.org/1999/xlink" width="200" height="200"><path d="M0 0m75.851852 0l872.296296 0q75.851852 0 75.851852 75.851852l0 872.296296q0 75.851852-75.851852 75.851852l-872.296296 0q-75.851852 0-75.851852-75.851852l0-872.296296q0-75.851852 75.851852-75.851852Z" fill="#E36C27" p-id="9611"></path><path d="M716.951704 231.803259c9.064296 5.575111 12.09837 19.057778 7.073185 30.264889l-36.352 69.480296-34.360889-21.276444 36.352-69.461333c6.068148-11.226074 18.147556-14.563556 27.287704-9.007408zM528.971852 170.666667c12.515556 0 21.959111 10.221037 21.959111 22.755555v79.625482H507.06963v-79.644445C506.993778 180.906667 516.437333 170.666667 528.952889 170.666667zM329.500444 231.879111c10.903704-5.632 25.505185-2.23763 31.516445 7.926519l43.652741 70.238814-41.244445 21.504-43.652741-70.219851c-6.030222-10.183111-2.389333-22.660741 9.728-29.449482zM187.998815 372.660148c5.632-10.808889 19.285333-15.663407 29.449481-8.438518l70.219852 43.349333-21.504 40.978963-70.219852-43.349333c-10.183111-6.068148-13.577481-20.48-7.945481-32.540445zM869.603556 372.186074c6.447407 10.884741 2.56 25.486222-9.064297 32.730074l-80.270222 43.633778-24.576-41.225482 80.251259-43.614814c11.643259-6.049185 27.154963-2.408296 33.65926 8.476444zM842.24 797.297778H761.362963V581.082074c0-129.706667-105.490963-234.913185-235.576889-234.913185s-235.576889 105.206519-235.576889 234.913185v216.215704h-89.069037c-16.440889 0-30.473481 14.070519-30.473481 30.378666 0 16.308148 14.032593 30.39763 30.473481 30.39763h641.099852c16.421926 0 30.454519-14.01363 30.454519-30.378667 0-16.384-14.032593-30.39763-30.454519-30.397629zM620.069926 599.798519l-134.712889 153.012148c-6.523259 7.414519-18.678519 0.967111-16.137481-8.533334l25.050074-94.435555h-50.403556a9.329778 9.329778 0 0 1-8.760889-12.667259l50.119111-131.185778a9.216 9.216 0 0 1 8.704-6.087111h84.574815c6.674963 0 11.226074 6.712889 8.722963 12.894814l-29.202963 71.376593h54.954667a9.443556 9.443556 0 0 1 7.092148 15.625482z" fill="#FFFFFF" p-id="9612"></path></svg>